<svg xmlns="http://www.w3.org/2000/svg" width="1440" height="756" style="cursor: move;"><g transform="translate(134,-38) scale(1)"><path class="link" marker-end="" d="M560,268, 740,348" style="stroke-width: 0.5px; stroke-opacity: 1; stroke: rgb(80, 80, 80);"></path><path class="link" marker-end="" d="M560,268, 740,388" style="stroke-width: 0.5px; stroke-opacity: 1; stroke: rgb(80, 80, 80);"></path><path class="link" marker-end="" d="M560,308, 740,348" style="stroke-width: 0.5px; stroke-opacity: 1; stroke: rgb(80, 80, 80);"></path><path class="link" marker-end="" d="M560,308, 740,388" style="stroke-width: 0.5px; stroke-opacity: 1; stroke: rgb(80, 80, 80);"></path><path class="link" marker-end="" d="M560,348, 740,348" style="stroke-width: 0.5px; stroke-opacity: 1; stroke: rgb(80, 80, 80);"></path><path class="link" marker-end="" d="M560,348, 740,388" style="stroke-width: 0.5px; stroke-opacity: 1; stroke: rgb(80, 80, 80);"></path><path class="link" marker-end="" d="M560,388, 740,348" style="stroke-width: 0.5px; stroke-opacity: 1; stroke: rgb(80, 80, 80);"></path><path class="link" marker-end="" d="M560,388, 740,388" style="stroke-width: 0.5px; stroke-opacity: 1; stroke: rgb(80, 80, 80);"></path><path class="link" marker-end="" d="M560,428, 740,348" style="stroke-width: 0.5px; stroke-opacity: 1; stroke: rgb(80, 80, 80);"></path><path class="link" marker-end="" d="M560,428, 740,388" style="stroke-width: 0.5px; stroke-opacity: 1; stroke: rgb(80, 80, 80);"></path><path class="link" marker-end="" d="M560,468, 740,348" style="stroke-width: 0.5px; stroke-opacity: 1; stroke: rgb(80, 80, 80);"></path><path class="link" marker-end="" d="M560,468, 740,388" style="stroke-width: 0.5px; stroke-opacity: 1; stroke: rgb(80, 80, 80);"></path><path class="link" marker-end="" d="M740,348, 920,268" style="stroke-width: 0.5px; stroke-opacity: 1; stroke: rgb(80, 80, 80);"></path><path class="link" marker-end="" d="M740,348, 920,308" style="stroke-width: 0.5px; stroke-opacity: 1; stroke: rgb(80, 80, 80);"></path><path class="link" marker-end="" d="M740,348, 920,348" style="stroke-width: 0.5px; stroke-opacity: 1; stroke: rgb(80, 80, 80);"></path><path class="link" marker-end="" d="M740,348, 920,388" style="stroke-width: 0.5px; stroke-opacity: 1; stroke: rgb(80, 80, 80);"></path><path class="link" marker-end="" d="M740,348, 920,428" style="stroke-width: 0.5px; stroke-opacity: 1; stroke: rgb(80, 80, 80);"></path><path class="link" marker-end="" d="M740,348, 920,468" style="stroke-width: 0.5px; stroke-opacity: 1; stroke: rgb(80, 80, 80);"></path><path class="link" marker-end="" d="M740,388, 920,268" style="stroke-width: 0.5px; stroke-opacity: 1; stroke: rgb(80, 80, 80);"></path><path class="link" marker-end="" d="M740,388, 920,308" style="stroke-width: 0.5px; stroke-opacity: 1; stroke: rgb(80, 80, 80);"></path><path class="link" marker-end="" d="M740,388, 920,348" style="stroke-width: 0.5px; stroke-opacity: 1; stroke: rgb(80, 80, 80);"></path><path class="link" marker-end="" d="M740,388, 920,388" style="stroke-width: 0.5px; stroke-opacity: 1; stroke: rgb(80, 80, 80);"></path><path class="link" marker-end="" d="M740,388, 920,428" style="stroke-width: 0.5px; stroke-opacity: 1; stroke: rgb(80, 80, 80);"></path><path class="link" marker-end="" d="M740,388, 920,468" style="stroke-width: 0.5px; stroke-opacity: 1; stroke: rgb(80, 80, 80);"></path><circle r="10" class="node" id="0_0" cx="560" cy="268" style="fill: rgb(255, 255, 255); stroke: rgb(51, 51, 51);"></circle><circle r="10" class="node" id="0_1" cx="560" cy="308" style="fill: rgb(255, 255, 255); stroke: rgb(51, 51, 51);"></circle><circle r="10" class="node" id="0_2" cx="560" cy="348" style="fill: rgb(255, 255, 255); stroke: rgb(51, 51, 51);"></circle><circle r="10" class="node" id="0_3" cx="560" cy="388" style="fill: rgb(255, 255, 255); stroke: rgb(51, 51, 51);"></circle><circle r="10" class="node" id="0_4" cx="560" cy="428" style="fill: rgb(255, 255, 255); stroke: rgb(51, 51, 51);"></circle><circle r="10" class="node" id="0_5" cx="560" cy="468" style="fill: rgb(255, 255, 255); stroke: rgb(51, 51, 51);"></circle><circle r="10" class="node" id="1_0" cx="740" cy="348" style="fill: rgb(255, 255, 255); stroke: rgb(51, 51, 51);"></circle><circle r="10" class="node" id="1_1" cx="740" cy="388" style="fill: rgb(255, 255, 255); stroke: rgb(51, 51, 51);"></circle><circle r="10" class="node" id="2_0" cx="920" cy="268" style="fill: rgb(255, 255, 255); stroke: rgb(51, 51, 51);"></circle><circle r="10" class="node" id="2_1" cx="920" cy="308" style="fill: rgb(255, 255, 255); stroke: rgb(51, 51, 51);"></circle><circle r="10" class="node" id="2_2" cx="920" cy="348" style="fill: rgb(255, 255, 255); stroke: rgb(51, 51, 51);"></circle><circle r="10" class="node" id="2_3" cx="920" cy="388" style="fill: rgb(255, 255, 255); stroke: rgb(51, 51, 51);"></circle><circle r="10" class="node" id="2_4" cx="920" cy="428" style="fill: rgb(255, 255, 255); stroke: rgb(51, 51, 51);"></circle><circle r="10" class="node" id="2_5" cx="920" cy="468" style="fill: rgb(255, 255, 255); stroke: rgb(51, 51, 51);"></circle><text class="text" dy=".35em" x="525" y="508" style="font-size: 12px;">Input Layer ∈ ℝ⁶</text><text class="text" dy=".35em" x="705" y="508" style="font-size: 12px;">Hidden Layer ∈ ℝ²</text><text class="text" dy=".35em" x="885" y="508" style="font-size: 12px;">Output Layer ∈ ℝ⁶</text></g><defs><marker id="arrow" viewBox="0 -5 10 10" markerWidth="7" markerHeight="7" orient="auto" refX="40"><path d="M0,-5L10,0L0,5" style="stroke: rgb(80, 80, 80); fill: none;"></path></marker></defs></svg>