<svg xmlns="http://www.w3.org/2000/svg" width="1324" height="964" style="cursor:move"><g transform="translate(81,-7) scale(1)"><path d="M502,339, 682,452" class="link" style="stroke-width:1.17px;stroke-opacity:.7248187577726641;stroke:#505050"/><path d="M502,339, 682,492" class="link" style="stroke-width:1.17px;stroke-opacity:.8258104989948214;stroke:#505050"/><path d="M502,339, 682,532" class="link" style="stroke-width:1.17px;stroke-opacity:.6983576916020116;stroke:#505050"/><path d="M502,377, 682,452" class="link" style="stroke-width:1.17px;stroke-opacity:.3910059686626224;stroke:#505050"/><path d="M502,377, 682,492" class="link" style="stroke-width:1.17px;stroke-opacity:.5173551284658486;stroke:#505050"/><path d="M502,377, 682,532" class="link" style="stroke-width:1.17px;stroke-opacity:.09394708152452758;stroke:#505050"/><path d="M502,415, 682,452" class="link" style="stroke-width:1.17px;stroke-opacity:.362328306716621;stroke:#505050"/><path d="M502,415, 682,492" class="link" style="stroke-width:1.17px;stroke-opacity:.824003140736487;stroke:#505050"/><path d="M502,415, 682,532" class="link" style="stroke-width:1.17px;stroke-opacity:.8685337752908684;stroke:#505050"/><path d="M502,453, 682,452" class="link" style="stroke-width:1.17px;stroke-opacity:.40609785251978603;stroke:#505050"/><path d="M502,453, 682,492" class="link" style="stroke-width:1.17px;stroke-opacity:.12492194806519508;stroke:#505050"/><path d="M502,453, 682,532" class="link" style="stroke-width:1.17px;stroke-opacity:.41443411716287004;stroke:#505050"/><path d="M502,491, 682,452" class="link" style="stroke-width:1.17px;stroke-opacity:.004650936142664763;stroke:#505050"/><path d="M502,491, 682,492" class="link" style="stroke-width:1.17px;stroke-opacity:.12485281708463525;stroke:#505050"/><path d="M502,491, 682,532" class="link" style="stroke-width:1.17px;stroke-opacity:.2245784624524192;stroke:#505050"/><path d="M502,529, 682,452" class="link" style="stroke-width:1.17px;stroke-opacity:.13319297926267804;stroke:#505050"/><path d="M502,529, 682,492" class="link" style="stroke-width:1.17px;stroke-opacity:.7983072352175038;stroke:#505050"/><path d="M502,529, 682,532" class="link" style="stroke-width:1.17px;stroke-opacity:.008710067841220415;stroke:#505050"/><path d="M502,567, 682,452" class="link" style="stroke-width:1.17px;stroke-opacity:.584537609850277;stroke:#505050"/><path d="M502,567, 682,492" class="link" style="stroke-width:1.17px;stroke-opacity:.3896692114555853;stroke:#505050"/><path d="M502,567, 682,532" class="link" style="stroke-width:1.17px;stroke-opacity:.9107124844880752;stroke:#505050"/><path d="M502,605, 682,452" class="link" style="stroke-width:1.17px;stroke-opacity:.5653907349695111;stroke:#505050"/><path d="M502,605, 682,492" class="link" style="stroke-width:1.17px;stroke-opacity:.7829141285290506;stroke:#505050"/><path d="M502,605, 682,532" class="link" style="stroke-width:1.17px;stroke-opacity:.60204560192341;stroke:#505050"/><path d="M682,412, 862,372" class="link" style="stroke-width:1.17px;stroke-opacity:.15193085083557012;stroke:#505050"/><path d="M682,412, 862,412" class="link" style="stroke-width:1.17px;stroke-opacity:.8877827412245416;stroke:#505050"/><path d="M682,412, 862,452" class="link" style="stroke-width:1.17px;stroke-opacity:.7023928301603852;stroke:#505050"/><path d="M682,412, 862,492" class="link" style="stroke-width:1.17px;stroke-opacity:.41679053598228033;stroke:#505050"/><path d="M682,412, 862,532" class="link" style="stroke-width:1.17px;stroke-opacity:.49525595539191936;stroke:#505050"/><path d="M682,412, 862,572" class="link" style="stroke-width:1.17px;stroke-opacity:.17434873004188312;stroke:#505050"/><path d="M682,412, 862,612" class="link" style="stroke-width:1.17px;stroke-opacity:.28925991193719147;stroke:#505050"/><path d="M682,452, 862,372" class="link" style="stroke-width:1.17px;stroke-opacity:.2890342156639889;stroke:#505050"/><path d="M682,452, 862,412" class="link" style="stroke-width:1.17px;stroke-opacity:.6789039758722009;stroke:#505050"/><path d="M682,452, 862,452" class="link" style="stroke-width:1.17px;stroke-opacity:.3878654384539775;stroke:#505050"/><path d="M682,452, 862,492" class="link" style="stroke-width:1.17px;stroke-opacity:.4802387072247307;stroke:#505050"/><path d="M682,452, 862,532" class="link" style="stroke-width:1.17px;stroke-opacity:.7395664268663065;stroke:#505050"/><path d="M682,452, 862,572" class="link" style="stroke-width:1.17px;stroke-opacity:.9827322286073019;stroke:#505050"/><path d="M682,452, 862,612" class="link" style="stroke-width:1.17px;stroke-opacity:.09389633485751192;stroke:#505050"/><path d="M682,492, 862,372" class="link" style="stroke-width:1.17px;stroke-opacity:.9345414703905879;stroke:#505050"/><path d="M682,492, 862,412" class="link" style="stroke-width:1.17px;stroke-opacity:.45648128653745745;stroke:#505050"/><path d="M682,492, 862,452" class="link" style="stroke-width:1.17px;stroke-opacity:.48857947793476764;stroke:#505050"/><path d="M682,492, 862,492" class="link" style="stroke-width:1.17px;stroke-opacity:.6063955299367016;stroke:#505050"/><path d="M682,492, 862,532" class="link" style="stroke-width:1.17px;stroke-opacity:.1054969680802329;stroke:#505050"/><path d="M682,492, 862,572" class="link" style="stroke-width:1.17px;stroke-opacity:.031629334098962625;stroke:#505050"/><path d="M682,492, 862,612" class="link" style="stroke-width:1.17px;stroke-opacity:.23162187565286585;stroke:#505050"/><path d="M682,532, 862,372" class="link" style="stroke-width:1.17px;stroke-opacity:.451761304453393;stroke:#505050"/><path d="M682,532, 862,412" class="link" style="stroke-width:1.17px;stroke-opacity:.5362032258519698;stroke:#505050"/><path d="M682,532, 862,452" class="link" style="stroke-width:1.17px;stroke-opacity:.47344050423795037;stroke:#505050"/><path d="M682,532, 862,492" class="link" style="stroke-width:1.17px;stroke-opacity:.4782017732886379;stroke:#505050"/><path d="M682,532, 862,532" class="link" style="stroke-width:1.17px;stroke-opacity:.8228376621262019;stroke:#505050"/><path d="M682,532, 862,572" class="link" style="stroke-width:1.17px;stroke-opacity:.2497358338632314;stroke:#505050"/><path d="M682,532, 862,612" class="link" style="stroke-width:1.17px;stroke-opacity:.8377299974736001;stroke:#505050"/><path d="M502,339, 682,412" class="link" style="stroke-width:1.17px;stroke-opacity:.10390677906578061;stroke:#505050"/><path d="M502,377, 682,412" class="link" style="stroke-width:1.17px;stroke-opacity:.9534227612508237;stroke:#505050"/><path d="M502,415, 682,412" class="link" style="stroke-width:1.17px;stroke-opacity:.22685649422371323;stroke:#505050"/><path d="M502,453, 682,412" class="link" style="stroke-width:1.17px;stroke-opacity:.6377357982097991;stroke:#505050"/><path d="M502,491, 682,412" class="link" style="stroke-width:1.17px;stroke-opacity:.04356839499927023;stroke:#505050"/><path d="M502,529, 682,412" class="link" style="stroke-width:1.17px;stroke-opacity:.7472314334399706;stroke:#505050"/><path d="M502,567, 682,412" class="link" style="stroke-width:1.17px;stroke-opacity:.9289320650778525;stroke:#505050"/><path d="M502,605, 682,412" class="link" style="stroke-width:1.17px;stroke-opacity:.3198508501574915;stroke:#505050"/><path d="M682,412, 862,332" class="link" style="stroke-width:1.17px;stroke-opacity:.9125523810883733;stroke:#505050"/><path d="M682,452, 862,332" class="link" style="stroke-width:1.17px;stroke-opacity:.4081336220234222;stroke:#505050"/><path d="M682,492, 862,332" class="link" style="stroke-width:1.17px;stroke-opacity:.3271652276203252;stroke:#505050"/><path d="M682,532, 862,332" class="link" style="stroke-width:1.17px;stroke-opacity:.9231351795498328;stroke:#505050"/><circle id="0_0" cx="502" cy="339" r="10" class="node" style="fill:#fff;stroke:#333"/><circle id="0_1" cx="502" cy="377" r="10" class="node" style="fill:#fff;stroke:#333"/><circle id="0_2" cx="502" cy="415" r="10" class="node" style="fill:#fff;stroke:#333"/><circle id="0_3" cx="502" cy="453" r="10" class="node" style="fill:#fff;stroke:#333"/><circle id="0_4" cx="502" cy="491" r="10" class="node" style="fill:#fff;stroke:#333"/><circle id="0_5" cx="502" cy="529" r="10" class="node" style="fill:#fff;stroke:#333"/><circle id="0_6" cx="502" cy="567" r="10" class="node" style="fill:#fff;stroke:#333"/><circle id="0_7" cx="502" cy="605" r="10" class="node" style="fill:#fff;stroke:#333"/><circle id="1_0" cx="682" cy="412" r="10" class="node" style="fill:#fff;stroke:#333"/><circle id="1_1" cx="682" cy="452" r="10" class="node" style="fill:#fff;stroke:#333"/><circle id="1_2" cx="682" cy="492" r="10" class="node" style="fill:#fff;stroke:#333"/><circle id="1_3" cx="682" cy="532" r="10" class="node" style="fill:#fff;stroke:#333"/><circle id="2_0" cx="862" cy="332" r="10" class="node" style="fill:#fff;stroke:#333"/><circle id="2_1" cx="862" cy="372" r="10" class="node" style="fill:#fff;stroke:#333"/><circle id="2_2" cx="862" cy="412" r="10" class="node" style="fill:#fff;stroke:#333"/><circle id="2_3" cx="862" cy="452" r="10" class="node" style="fill:#fff;stroke:#333"/><circle id="2_4" cx="862" cy="492" r="10" class="node" style="fill:#fff;stroke:#333"/><circle id="2_5" cx="862" cy="532" r="10" class="node" style="fill:#fff;stroke:#333"/><circle id="2_6" cx="862" cy="572" r="10" class="node" style="fill:#fff;stroke:#333"/><circle id="2_7" cx="862" cy="612" r="10" class="node" style="fill:#fff;stroke:#333"/><text x="467" y="652" class="text" dy=".35em" style="font-size:12px">Input Layer ∈ ℝ⁸</text><text x="647" y="652" class="text" dy=".35em" style="font-size:12px">Hidden Layer ∈ ℝ⁴</text><text x="827" y="652" class="text" dy=".35em" style="font-size:12px">Output Layer ∈ ℝ⁸</text></g><defs><marker id="arrow" markerHeight="7" markerWidth="7" orient="auto" refX="40" viewBox="0 -5 10 10"><path d="M0,-5L10,0L0,5" style="stroke:#505050;fill:none"/></marker></defs></svg>