<svg xmlns="http://www.w3.org/2000/svg" width="1324" height="964" style="cursor: move;"><g transform="translate(81,-7) scale(1)"><path class="link" marker-end="" d="M502,339, 682,452" style="stroke-width: 1.17px; stroke-opacity: 0.7248187577726641; stroke: rgb(80, 80, 80);"></path><path class="link" marker-end="" d="M502,339, 682,492" style="stroke-width: 1.17px; stroke-opacity: 0.8258104989948214; stroke: rgb(80, 80, 80);"></path><path class="link" marker-end="" d="M502,339, 682,532" style="stroke-width: 1.17px; stroke-opacity: 0.6983576916020116; stroke: rgb(80, 80, 80);"></path><path class="link" marker-end="" d="M502,377, 682,452" style="stroke-width: 1.17px; stroke-opacity: 0.3910059686626224; stroke: rgb(80, 80, 80);"></path><path class="link" marker-end="" d="M502,377, 682,492" style="stroke-width: 1.17px; stroke-opacity: 0.5173551284658486; stroke: rgb(80, 80, 80);"></path><path class="link" marker-end="" d="M502,377, 682,532" style="stroke-width: 1.17px; stroke-opacity: 0.09394708152452758; stroke: rgb(80, 80, 80);"></path><path class="link" marker-end="" d="M502,415, 682,452" style="stroke-width: 1.17px; stroke-opacity: 0.362328306716621; stroke: rgb(80, 80, 80);"></path><path class="link" marker-end="" d="M502,415, 682,492" style="stroke-width: 1.17px; stroke-opacity: 0.824003140736487; stroke: rgb(80, 80, 80);"></path><path class="link" marker-end="" d="M502,415, 682,532" style="stroke-width: 1.17px; stroke-opacity: 0.8685337752908684; stroke: rgb(80, 80, 80);"></path><path class="link" marker-end="" d="M502,453, 682,452" style="stroke-width: 1.17px; stroke-opacity: 0.40609785251978603; stroke: rgb(80, 80, 80);"></path><path class="link" marker-end="" d="M502,453, 682,492" style="stroke-width: 1.17px; stroke-opacity: 0.12492194806519508; stroke: rgb(80, 80, 80);"></path><path class="link" marker-end="" d="M502,453, 682,532" style="stroke-width: 1.17px; stroke-opacity: 0.41443411716287004; stroke: rgb(80, 80, 80);"></path><path class="link" marker-end="" d="M502,491, 682,452" style="stroke-width: 1.17px; stroke-opacity: 0.004650936142664763; stroke: rgb(80, 80, 80);"></path><path class="link" marker-end="" d="M502,491, 682,492" style="stroke-width: 1.17px; stroke-opacity: 0.12485281708463525; stroke: rgb(80, 80, 80);"></path><path class="link" marker-end="" d="M502,491, 682,532" style="stroke-width: 1.17px; stroke-opacity: 0.2245784624524192; stroke: rgb(80, 80, 80);"></path><path class="link" marker-end="" d="M502,529, 682,452" style="stroke-width: 1.17px; stroke-opacity: 0.13319297926267804; stroke: rgb(80, 80, 80);"></path><path class="link" marker-end="" d="M502,529, 682,492" style="stroke-width: 1.17px; stroke-opacity: 0.7983072352175038; stroke: rgb(80, 80, 80);"></path><path class="link" marker-end="" d="M502,529, 682,532" style="stroke-width: 1.17px; stroke-opacity: 0.008710067841220415; stroke: rgb(80, 80, 80);"></path><path class="link" marker-end="" d="M502,567, 682,452" style="stroke-width: 1.17px; stroke-opacity: 0.584537609850277; stroke: rgb(80, 80, 80);"></path><path class="link" marker-end="" d="M502,567, 682,492" style="stroke-width: 1.17px; stroke-opacity: 0.3896692114555853; stroke: rgb(80, 80, 80);"></path><path class="link" marker-end="" d="M502,567, 682,532" style="stroke-width: 1.17px; stroke-opacity: 0.9107124844880752; stroke: rgb(80, 80, 80);"></path><path class="link" marker-end="" d="M502,605, 682,452" style="stroke-width: 1.17px; stroke-opacity: 0.5653907349695111; stroke: rgb(80, 80, 80);"></path><path class="link" marker-end="" d="M502,605, 682,492" style="stroke-width: 1.17px; stroke-opacity: 0.7829141285290506; stroke: rgb(80, 80, 80);"></path><path class="link" marker-end="" d="M502,605, 682,532" style="stroke-width: 1.17px; stroke-opacity: 0.60204560192341; stroke: rgb(80, 80, 80);"></path><path class="link" marker-end="" d="M682,412, 862,372" style="stroke-width: 1.17px; stroke-opacity: 0.15193085083557012; stroke: rgb(80, 80, 80);"></path><path class="link" marker-end="" d="M682,412, 862,412" style="stroke-width: 1.17px; stroke-opacity: 0.8877827412245416; stroke: rgb(80, 80, 80);"></path><path class="link" marker-end="" d="M682,412, 862,452" style="stroke-width: 1.17px; stroke-opacity: 0.7023928301603852; stroke: rgb(80, 80, 80);"></path><path class="link" marker-end="" d="M682,412, 862,492" style="stroke-width: 1.17px; stroke-opacity: 0.41679053598228033; stroke: rgb(80, 80, 80);"></path><path class="link" marker-end="" d="M682,412, 862,532" style="stroke-width: 1.17px; stroke-opacity: 0.49525595539191936; stroke: rgb(80, 80, 80);"></path><path class="link" marker-end="" d="M682,412, 862,572" style="stroke-width: 1.17px; stroke-opacity: 0.17434873004188312; stroke: rgb(80, 80, 80);"></path><path class="link" marker-end="" d="M682,412, 862,612" style="stroke-width: 1.17px; stroke-opacity: 0.28925991193719147; stroke: rgb(80, 80, 80);"></path><path class="link" marker-end="" d="M682,452, 862,372" style="stroke-width: 1.17px; stroke-opacity: 0.2890342156639889; stroke: rgb(80, 80, 80);"></path><path class="link" marker-end="" d="M682,452, 862,412" style="stroke-width: 1.17px; stroke-opacity: 0.6789039758722009; stroke: rgb(80, 80, 80);"></path><path class="link" marker-end="" d="M682,452, 862,452" style="stroke-width: 1.17px; stroke-opacity: 0.3878654384539775; stroke: rgb(80, 80, 80);"></path><path class="link" marker-end="" d="M682,452, 862,492" style="stroke-width: 1.17px; stroke-opacity: 0.4802387072247307; stroke: rgb(80, 80, 80);"></path><path class="link" marker-end="" d="M682,452, 862,532" style="stroke-width: 1.17px; stroke-opacity: 0.7395664268663065; stroke: rgb(80, 80, 80);"></path><path class="link" marker-end="" d="M682,452, 862,572" style="stroke-width: 1.17px; stroke-opacity: 0.9827322286073019; stroke: rgb(80, 80, 80);"></path><path class="link" marker-end="" d="M682,452, 862,612" style="stroke-width: 1.17px; stroke-opacity: 0.09389633485751192; stroke: rgb(80, 80, 80);"></path><path class="link" marker-end="" d="M682,492, 862,372" style="stroke-width: 1.17px; stroke-opacity: 0.9345414703905879; stroke: rgb(80, 80, 80);"></path><path class="link" marker-end="" d="M682,492, 862,412" style="stroke-width: 1.17px; stroke-opacity: 0.45648128653745745; stroke: rgb(80, 80, 80);"></path><path class="link" marker-end="" d="M682,492, 862,452" style="stroke-width: 1.17px; stroke-opacity: 0.48857947793476764; stroke: rgb(80, 80, 80);"></path><path class="link" marker-end="" d="M682,492, 862,492" style="stroke-width: 1.17px; stroke-opacity: 0.6063955299367016; stroke: rgb(80, 80, 80);"></path><path class="link" marker-end="" d="M682,492, 862,532" style="stroke-width: 1.17px; stroke-opacity: 0.1054969680802329; stroke: rgb(80, 80, 80);"></path><path class="link" marker-end="" d="M682,492, 862,572" style="stroke-width: 1.17px; stroke-opacity: 0.031629334098962625; stroke: rgb(80, 80, 80);"></path><path class="link" marker-end="" d="M682,492, 862,612" style="stroke-width: 1.17px; stroke-opacity: 0.23162187565286585; stroke: rgb(80, 80, 80);"></path><path class="link" marker-end="" d="M682,532, 862,372" style="stroke-width: 1.17px; stroke-opacity: 0.451761304453393; stroke: rgb(80, 80, 80);"></path><path class="link" marker-end="" d="M682,532, 862,412" style="stroke-width: 1.17px; stroke-opacity: 0.5362032258519698; stroke: rgb(80, 80, 80);"></path><path class="link" marker-end="" d="M682,532, 862,452" style="stroke-width: 1.17px; stroke-opacity: 0.47344050423795037; stroke: rgb(80, 80, 80);"></path><path class="link" marker-end="" d="M682,532, 862,492" style="stroke-width: 1.17px; stroke-opacity: 0.4782017732886379; stroke: rgb(80, 80, 80);"></path><path class="link" marker-end="" d="M682,532, 862,532" style="stroke-width: 1.17px; stroke-opacity: 0.8228376621262019; stroke: rgb(80, 80, 80);"></path><path class="link" marker-end="" d="M682,532, 862,572" style="stroke-width: 1.17px; stroke-opacity: 0.2497358338632314; stroke: rgb(80, 80, 80);"></path><path class="link" marker-end="" d="M682,532, 862,612" style="stroke-width: 1.17px; stroke-opacity: 0.8377299974736001; stroke: rgb(80, 80, 80);"></path><path class="link" marker-end="" d="M502,339, 682,412" style="stroke-width: 1.17px; stroke-opacity: 0.10390677906578061; stroke: rgb(80, 80, 80);"></path><path class="link" marker-end="" d="M502,377, 682,412" style="stroke-width: 1.17px; stroke-opacity: 0.9534227612508237; stroke: rgb(80, 80, 80);"></path><path class="link" marker-end="" d="M502,415, 682,412" style="stroke-width: 1.17px; stroke-opacity: 0.22685649422371323; stroke: rgb(80, 80, 80);"></path><path class="link" marker-end="" d="M502,453, 682,412" style="stroke-width: 1.17px; stroke-opacity: 0.6377357982097991; stroke: rgb(80, 80, 80);"></path><path class="link" marker-end="" d="M502,491, 682,412" style="stroke-width: 1.17px; stroke-opacity: 0.04356839499927023; stroke: rgb(80, 80, 80);"></path><path class="link" marker-end="" d="M502,529, 682,412" style="stroke-width: 1.17px; stroke-opacity: 0.7472314334399706; stroke: rgb(80, 80, 80);"></path><path class="link" marker-end="" d="M502,567, 682,412" style="stroke-width: 1.17px; stroke-opacity: 0.9289320650778525; stroke: rgb(80, 80, 80);"></path><path class="link" marker-end="" d="M502,605, 682,412" style="stroke-width: 1.17px; stroke-opacity: 0.3198508501574915; stroke: rgb(80, 80, 80);"></path><path class="link" marker-end="" d="M682,412, 862,332" style="stroke-width: 1.17px; stroke-opacity: 0.9125523810883733; stroke: rgb(80, 80, 80);"></path><path class="link" marker-end="" d="M682,452, 862,332" style="stroke-width: 1.17px; stroke-opacity: 0.4081336220234222; stroke: rgb(80, 80, 80);"></path><path class="link" marker-end="" d="M682,492, 862,332" style="stroke-width: 1.17px; stroke-opacity: 0.3271652276203252; stroke: rgb(80, 80, 80);"></path><path class="link" marker-end="" d="M682,532, 862,332" style="stroke-width: 1.17px; stroke-opacity: 0.9231351795498328; stroke: rgb(80, 80, 80);"></path><circle r="10" class="node" id="0_0" cx="502" cy="339" style="fill: rgb(255, 255, 255); stroke: rgb(51, 51, 51);"></circle><circle r="10" class="node" id="0_1" cx="502" cy="377" style="fill: rgb(255, 255, 255); stroke: rgb(51, 51, 51);"></circle><circle r="10" class="node" id="0_2" cx="502" cy="415" style="fill: rgb(255, 255, 255); stroke: rgb(51, 51, 51);"></circle><circle r="10" class="node" id="0_3" cx="502" cy="453" style="fill: rgb(255, 255, 255); stroke: rgb(51, 51, 51);"></circle><circle r="10" class="node" id="0_4" cx="502" cy="491" style="fill: rgb(255, 255, 255); stroke: rgb(51, 51, 51);"></circle><circle r="10" class="node" id="0_5" cx="502" cy="529" style="fill: rgb(255, 255, 255); stroke: rgb(51, 51, 51);"></circle><circle r="10" class="node" id="0_6" cx="502" cy="567" style="fill: rgb(255, 255, 255); stroke: rgb(51, 51, 51);"></circle><circle r="10" class="node" id="0_7" cx="502" cy="605" style="fill: rgb(255, 255, 255); stroke: rgb(51, 51, 51);"></circle><circle r="10" class="node" id="1_0" cx="682" cy="412" style="fill: rgb(255, 255, 255); stroke: rgb(51, 51, 51);"></circle><circle r="10" class="node" id="1_1" cx="682" cy="452" style="fill: rgb(255, 255, 255); stroke: rgb(51, 51, 51);"></circle><circle r="10" class="node" id="1_2" cx="682" cy="492" style="fill: rgb(255, 255, 255); stroke: rgb(51, 51, 51);"></circle><circle r="10" class="node" id="1_3" cx="682" cy="532" style="fill: rgb(255, 255, 255); stroke: rgb(51, 51, 51);"></circle><circle r="10" class="node" id="2_0" cx="862" cy="332" style="fill: rgb(255, 255, 255); stroke: rgb(51, 51, 51);"></circle><circle r="10" class="node" id="2_1" cx="862" cy="372" style="fill: rgb(255, 255, 255); stroke: rgb(51, 51, 51);"></circle><circle r="10" class="node" id="2_2" cx="862" cy="412" style="fill: rgb(255, 255, 255); stroke: rgb(51, 51, 51);"></circle><circle r="10" class="node" id="2_3" cx="862" cy="452" style="fill: rgb(255, 255, 255); stroke: rgb(51, 51, 51);"></circle><circle r="10" class="node" id="2_4" cx="862" cy="492" style="fill: rgb(255, 255, 255); stroke: rgb(51, 51, 51);"></circle><circle r="10" class="node" id="2_5" cx="862" cy="532" style="fill: rgb(255, 255, 255); stroke: rgb(51, 51, 51);"></circle><circle r="10" class="node" id="2_6" cx="862" cy="572" style="fill: rgb(255, 255, 255); stroke: rgb(51, 51, 51);"></circle><circle r="10" class="node" id="2_7" cx="862" cy="612" style="fill: rgb(255, 255, 255); stroke: rgb(51, 51, 51);"></circle><text class="text" dy=".35em" x="467" y="652" style="font-size: 12px;">Input Layer ∈ ℝ⁸</text><text class="text" dy=".35em" x="647" y="652" style="font-size: 12px;">Hidden Layer ∈ ℝ⁴</text><text class="text" dy=".35em" x="827" y="652" style="font-size: 12px;">Output Layer ∈ ℝ⁸</text></g><defs><marker id="arrow" viewBox="0 -5 10 10" markerWidth="7" markerHeight="7" orient="auto" refX="40"><path d="M0,-5L10,0L0,5" style="stroke: rgb(80, 80, 80); fill: none;"></path></marker></defs></svg>