<svg xmlns="http://www.w3.org/2000/svg" width="1440" height="756" style="cursor:move"><g transform="translate(134,-38) scale(1)"><path d="M560,268, 740,348" class="link" style="stroke-width:.5px;stroke-opacity:1;stroke:#505050"/><path d="M560,268, 740,388" class="link" style="stroke-width:.5px;stroke-opacity:1;stroke:#505050"/><path d="M560,308, 740,348" class="link" style="stroke-width:.5px;stroke-opacity:1;stroke:#505050"/><path d="M560,308, 740,388" class="link" style="stroke-width:.5px;stroke-opacity:1;stroke:#505050"/><path d="M560,348, 740,348" class="link" style="stroke-width:.5px;stroke-opacity:1;stroke:#505050"/><path d="M560,348, 740,388" class="link" style="stroke-width:.5px;stroke-opacity:1;stroke:#505050"/><path d="M560,388, 740,348" class="link" style="stroke-width:.5px;stroke-opacity:1;stroke:#505050"/><path d="M560,388, 740,388" class="link" style="stroke-width:.5px;stroke-opacity:1;stroke:#505050"/><path d="M560,428, 740,348" class="link" style="stroke-width:.5px;stroke-opacity:1;stroke:#505050"/><path d="M560,428, 740,388" class="link" style="stroke-width:.5px;stroke-opacity:1;stroke:#505050"/><path d="M560,468, 740,348" class="link" style="stroke-width:.5px;stroke-opacity:1;stroke:#505050"/><path d="M560,468, 740,388" class="link" style="stroke-width:.5px;stroke-opacity:1;stroke:#505050"/><path d="M740,348, 920,268" class="link" style="stroke-width:.5px;stroke-opacity:1;stroke:#505050"/><path d="M740,348, 920,308" class="link" style="stroke-width:.5px;stroke-opacity:1;stroke:#505050"/><path d="M740,348, 920,348" class="link" style="stroke-width:.5px;stroke-opacity:1;stroke:#505050"/><path d="M740,348, 920,388" class="link" style="stroke-width:.5px;stroke-opacity:1;stroke:#505050"/><path d="M740,348, 920,428" class="link" style="stroke-width:.5px;stroke-opacity:1;stroke:#505050"/><path d="M740,348, 920,468" class="link" style="stroke-width:.5px;stroke-opacity:1;stroke:#505050"/><path d="M740,388, 920,268" class="link" style="stroke-width:.5px;stroke-opacity:1;stroke:#505050"/><path d="M740,388, 920,308" class="link" style="stroke-width:.5px;stroke-opacity:1;stroke:#505050"/><path d="M740,388, 920,348" class="link" style="stroke-width:.5px;stroke-opacity:1;stroke:#505050"/><path d="M740,388, 920,388" class="link" style="stroke-width:.5px;stroke-opacity:1;stroke:#505050"/><path d="M740,388, 920,428" class="link" style="stroke-width:.5px;stroke-opacity:1;stroke:#505050"/><path d="M740,388, 920,468" class="link" style="stroke-width:.5px;stroke-opacity:1;stroke:#505050"/><circle id="0_0" cx="560" cy="268" r="10" class="node" style="fill:#fff;stroke:#333"/><circle id="0_1" cx="560" cy="308" r="10" class="node" style="fill:#fff;stroke:#333"/><circle id="0_2" cx="560" cy="348" r="10" class="node" style="fill:#fff;stroke:#333"/><circle id="0_3" cx="560" cy="388" r="10" class="node" style="fill:#fff;stroke:#333"/><circle id="0_4" cx="560" cy="428" r="10" class="node" style="fill:#fff;stroke:#333"/><circle id="0_5" cx="560" cy="468" r="10" class="node" style="fill:#fff;stroke:#333"/><circle id="1_0" cx="740" cy="348" r="10" class="node" style="fill:#fff;stroke:#333"/><circle id="1_1" cx="740" cy="388" r="10" class="node" style="fill:#fff;stroke:#333"/><circle id="2_0" cx="920" cy="268" r="10" class="node" style="fill:#fff;stroke:#333"/><circle id="2_1" cx="920" cy="308" r="10" class="node" style="fill:#fff;stroke:#333"/><circle id="2_2" cx="920" cy="348" r="10" class="node" style="fill:#fff;stroke:#333"/><circle id="2_3" cx="920" cy="388" r="10" class="node" style="fill:#fff;stroke:#333"/><circle id="2_4" cx="920" cy="428" r="10" class="node" style="fill:#fff;stroke:#333"/><circle id="2_5" cx="920" cy="468" r="10" class="node" style="fill:#fff;stroke:#333"/><text x="525" y="508" class="text" dy=".35em" style="font-size:12px">Input Layer ∈ ℝ⁶</text><text x="705" y="508" class="text" dy=".35em" style="font-size:12px">Hidden Layer ∈ ℝ²</text><text x="885" y="508" class="text" dy=".35em" style="font-size:12px">Output Layer ∈ ℝ⁶</text></g><defs><marker id="arrow" markerHeight="7" markerWidth="7" orient="auto" refX="40" viewBox="0 -5 10 10"><path d="M0,-5L10,0L0,5" style="stroke:#505050;fill:none"/></marker></defs></svg>